<svg id="visual" viewBox="0 0 900 450" width="900" height="450" xmlns="http://www.w3.org/2000/svg" xmlns:xlink="http://www.w3.org/1999/xlink" version="1.1"><rect x="0" y="0" width="900" height="450" fill="#2E4770"></rect><path d="M0 281L21.5 298.8C43 316.7 86 352.3 128.8 355C171.7 357.7 214.3 327.3 257.2 311.8C300 296.3 343 295.7 385.8 306C428.7 316.3 471.3 337.7 514.2 345.7C557 353.7 600 348.3 642.8 346.8C685.7 345.3 728.3 347.7 771.2 351C814 354.3 857 358.7 878.5 360.8L900 363L900 451L878.5 451C857 451 814 451 771.2 451C728.3 451 685.7 451 642.8 451C600 451 557 451 514.2 451C471.3 451 428.7 451 385.8 451C343 451 300 451 257.2 451C214.3 451 171.7 451 128.8 451C86 451 43 451 21.5 451L0 451Z" fill="#001220" stroke-linecap="round" stroke-linejoin="miter"></path></svg>