<svg id="visual" viewBox="0 0 900 450" width="900" height="450" xmlns="http://www.w3.org/2000/svg" xmlns:xlink="http://www.w3.org/1999/xlink" version="1.1"><rect x="0" y="0" width="900" height="450" fill="#5DA5F2"></rect><path d="M0 340L21.5 332.8C43 325.7 86 311.3 128.8 301.5C171.7 291.7 214.3 286.3 257.2 292.5C300 298.7 343 316.3 385.8 332.7C428.7 349 471.3 364 514.2 369.3C557 374.7 600 370.3 642.8 360.5C685.7 350.7 728.3 335.3 771.2 321.7C814 308 857 296 878.5 290L900 284L900 451L878.5 451C857 451 814 451 771.2 451C728.3 451 685.7 451 642.8 451C600 451 557 451 514.2 451C471.3 451 428.7 451 385.8 451C343 451 300 451 257.2 451C214.3 451 171.7 451 128.8 451C86 451 43 451 21.5 451L0 451Z" fill="#2E4770" stroke-linecap="round" stroke-linejoin="miter"></path></svg>