<svg id="visual" viewBox="0 0 900 600" width="900" height="600" xmlns="http://www.w3.org/2000/svg" xmlns:xlink="http://www.w3.org/1999/xlink" version="1.1"><rect x="0" y="0" width="900" height="600" fill="#001220"></rect><path d="M0 406L21.5 411C43 416 86 426 128.8 430C171.7 434 214.3 432 257.2 430.3C300 428.7 343 427.3 385.8 422C428.7 416.7 471.3 407.3 514.2 408.2C557 409 600 420 642.8 417C685.7 414 728.3 397 771.2 388.8C814 380.7 857 381.3 878.5 381.7L900 382L900 601L878.5 601C857 601 814 601 771.2 601C728.3 601 685.7 601 642.8 601C600 601 557 601 514.2 601C471.3 601 428.7 601 385.8 601C343 601 300 601 257.2 601C214.3 601 171.7 601 128.8 601C86 601 43 601 21.5 601L0 601Z" fill="#232628"></path><path d="M0 420L21.5 424.5C43 429 86 438 128.8 446.7C171.7 455.3 214.3 463.7 257.2 460C300 456.3 343 440.7 385.8 433.7C428.7 426.7 471.3 428.3 514.2 423.8C557 419.3 600 408.7 642.8 407.8C685.7 407 728.3 416 771.2 421.3C814 426.7 857 428.3 878.5 429.2L900 430L900 601L878.5 601C857 601 814 601 771.2 601C728.3 601 685.7 601 642.8 601C600 601 557 601 514.2 601C471.3 601 428.7 601 385.8 601C343 601 300 601 257.2 601C214.3 601 171.7 601 128.8 601C86 601 43 601 21.5 601L0 601Z" fill="#1b1e20"></path><path d="M0 443L21.5 447.7C43 452.3 86 461.7 128.8 464.2C171.7 466.7 214.3 462.3 257.2 457C300 451.7 343 445.3 385.8 450C428.7 454.7 471.3 470.3 514.2 470.7C557 471 600 456 642.8 456.5C685.7 457 728.3 473 771.2 478.3C814 483.7 857 478.3 878.5 475.7L900 473L900 601L878.5 601C857 601 814 601 771.2 601C728.3 601 685.7 601 642.8 601C600 601 557 601 514.2 601C471.3 601 428.7 601 385.8 601C343 601 300 601 257.2 601C214.3 601 171.7 601 128.8 601C86 601 43 601 21.5 601L0 601Z" fill="#141719"></path><path d="M0 481L21.5 482.2C43 483.3 86 485.7 128.8 487.3C171.7 489 214.3 490 257.2 498.2C300 506.3 343 521.7 385.8 522.2C428.7 522.7 471.3 508.3 514.2 499.7C557 491 600 488 642.8 486.7C685.7 485.3 728.3 485.7 771.2 490.7C814 495.7 857 505.3 878.5 510.2L900 515L900 601L878.5 601C857 601 814 601 771.2 601C728.3 601 685.7 601 642.8 601C600 601 557 601 514.2 601C471.3 601 428.7 601 385.8 601C343 601 300 601 257.2 601C214.3 601 171.7 601 128.8 601C86 601 43 601 21.5 601L0 601Z" fill="#090e11"></path><path d="M0 550L21.5 548.7C43 547.3 86 544.7 128.8 541.7C171.7 538.7 214.3 535.3 257.2 540C300 544.7 343 557.3 385.8 559.5C428.7 561.7 471.3 553.3 514.2 548.8C557 544.3 600 543.7 642.8 545.2C685.7 546.7 728.3 550.3 771.2 547.3C814 544.3 857 534.7 878.5 529.8L900 525L900 601L878.5 601C857 601 814 601 771.2 601C728.3 601 685.7 601 642.8 601C600 601 557 601 514.2 601C471.3 601 428.7 601 385.8 601C343 601 300 601 257.2 601C214.3 601 171.7 601 128.8 601C86 601 43 601 21.5 601L0 601Z" fill="#000000"></path></svg>